<?xml version="1.0" encoding="UTF-8" standalone="no"?>
<svg
   xmlns:dc="http://purl.org/dc/elements/1.1/"
   xmlns:cc="http://creativecommons.org/ns#"
   xmlns:rdf="http://www.w3.org/1999/02/22-rdf-syntax-ns#"
   xmlns:svg="http://www.w3.org/2000/svg"
   xmlns="http://www.w3.org/2000/svg"
   xmlns:sodipodi="http://sodipodi.sourceforge.net/DTD/sodipodi-0.dtd"
   xmlns:inkscape="http://www.inkscape.org/namespaces/inkscape"
   id="Fin set"
   externalResourcesRequired="0"
   x="0in"
   y="0in"
   width="439.20001"
   height="170.10001"
   viewBox="0 0 4880 1890"
   version="1.1"
   inkscape:version="0.48.2 r9819"
   sodipodi:docname="Streamline Fin set.svg">
  <sodipodi:namedview
     pagecolor="#ffffff"
     bordercolor="#666666"
     borderopacity="1"
     objecttolerance="10"
     gridtolerance="10"
     guidetolerance="10"
     inkscape:pageopacity="0"
     inkscape:pageshadow="2"
     inkscape:window-width="1504"
     inkscape:window-height="724"
     id="namedview7"
     showgrid="false"
     inkscape:zoom="1.78"
     inkscape:cx="219.60001"
     inkscape:cy="85.050003"
     inkscape:window-x="0"
     inkscape:window-y="0"
     inkscape:window-maximized="0"
     inkscape:current-layer="Fin set"
     inkscape:document-units="mm"
     units="mm" />
  <metadata
     id="metadata11">
    <rdf:RDF>
      <cc:Work
         rdf:about="">
        <dc:format>image/svg+xml</dc:format>
        <dc:type
           rdf:resource="http://purl.org/dc/dcmitype/StillImage" />
      </cc:Work>
    </rdf:RDF>
  </metadata>
  <defs
     id="defs9" />
  <desc
     id="desc3">Design: Streamline, Part: Fin set, 1/1000 Inch</desc>
  <g
     transform="translate(0,-8.4520084e-5)"
     style="fill:#808080;stroke:#000000"
     externalResourcesRequired="0"
     id="FinPlanPoints">
    <path
       inkscape:connector-curvature="0"
       style="fill:none"
       d="M 2000,1890 4880,0 4800,0 4672.28,0 4595.2,0 4534.72,0 4471.18,6.04724 4390,20.3543 4320,40 4250,59.6732 4171.22,86.8937 4110.75,110 4030.2,145.567 3950.83,179.346 3867.82,220 3770,273.11 3630,345.701 2450,1012.6 1960,1286.67 1680,1450 l -130,70 -63.69,30 -118.03,50 -78.28,30 -80,30 -90,30 -67.6,20 -62.4,20 -70,20 -90,20 -50,10 -100.213,20 -119.787,20 -76.921,9.87 -98.358,10.13 -117.393,11.26 -94.921,11.62 -62.407,7.75 -40.2622,5.81 L 0,1890 z"
       externalResourcesRequired="0"
       id="Plan points" />
  </g>
</svg>
